# Blender 4.5.0
# www.blender.org
mtllib room.mtl
o Cube.001
v -5.000000 0.050000 -4.900000
v -5.000000 0.150000 -4.900000
v -5.000000 0.050000 -5.000000
v -5.000000 0.150000 -5.000000
v -4.900000 0.050000 -4.900000
v -4.900000 0.150000 -4.900000
v -4.900000 0.050000 -5.000000
v -4.900000 0.150000 -5.000000
v -5.000000 9.950001 -4.900000
v -5.000000 9.950001 -5.000000
v -4.900000 9.950001 -5.000000
v -4.900000 9.950001 -4.900000
v 5.000000 0.150000 -5.000000
v 5.000000 0.050000 -5.000000
v 5.000000 0.050000 -4.900000
v 5.000000 0.150000 -4.900000
v 5.000000 9.950001 -5.000000
v 5.000000 9.950001 -4.900000
v -5.000000 0.050000 5.000000
v -5.000000 0.150000 5.000000
v -4.900000 0.150000 5.000000
v -4.900000 0.050000 5.000000
v -4.900000 9.950001 5.000000
v -5.000000 9.950001 5.000000
v -4.900000 9.950001 -4.900000
v -4.900000 0.150000 -4.900000
v -4.900000 9.950001 5.000000
v -4.900000 0.150000 5.000000
v -5.000000 -0.050000 5.000000
v -5.000000 0.050000 5.000000
v -5.000000 -0.050000 -5.000000
v -5.000000 0.050000 -5.000000
v 5.000000 -0.050000 5.000000
v 5.000000 0.050000 5.000000
v 5.000000 -0.050000 -5.000000
v 5.000000 0.050000 -5.000000
vn -1.0000 -0.0000 -0.0000
vn -0.0000 -0.0000 -1.0000
vn -0.0000 -0.0000 1.0000
vn -0.0000 -1.0000 -0.0000
vn -0.0000 1.0000 -0.0000
vn 1.0000 -0.0000 -0.0000
vt 0.375000 0.000000
vt 0.625000 0.000000
vt 0.625000 0.250000
vt 0.375000 0.250000
vt 0.625000 0.500000
vt 0.375000 0.500000
vt 0.625000 0.750000
vt 0.125000 0.500000
vt 0.375000 0.750000
vt 0.125000 0.750000
vt 0.875000 0.500000
vt 0.875000 0.750000
vt 0.625000 1.000000
vt 0.375000 1.000000
s 0
f 1/1/1 2/2/1 4/3/1 3/4/1
f 3/4/2 4/3/2 8/5/2 7/6/2
f 25/7/3 26/7/3 16/7/3 18/7/3
f 9/2/1 2/2/1 20/2/1 24/2/1
f 3/8/4 7/6/4 5/9/4 1/10/4
f 8/5/2 4/3/2 10/3/2 11/5/2
f 11/5/5 10/11/5 9/12/5 25/7/5
f 26/7/3 5/9/3 15/9/3 16/7/3
f 4/3/1 2/2/1 9/2/1 10/3/1
f 1/10/4 5/9/4 22/9/4 19/10/4
f 14/6/6 13/5/6 16/7/6 15/9/6
f 16/7/6 13/5/6 17/5/6 18/7/6
f 5/9/4 7/6/4 14/6/4 15/9/4
f 11/5/5 25/7/5 18/7/5 17/5/5
f 8/5/2 11/5/2 17/5/2 13/5/2
f 7/6/2 8/5/2 13/5/2 14/6/2
f 22/9/3 28/7/3 20/13/3 19/14/3
f 20/13/3 28/7/3 27/7/3 24/13/3
f 25/7/5 9/12/5 24/12/5 27/7/5
f 5/9/6 26/7/6 28/7/6 22/9/6
f 6/7/6 12/7/6 23/7/6 21/7/6
f 2/2/1 1/1/1 19/1/1 20/2/1
f 12/7/5 6/7/5 26/7/5 25/7/5
f 21/7/5 23/7/5 27/7/5 28/7/5
f 23/7/5 12/7/5 25/7/5 27/7/5
f 6/7/5 21/7/5 28/7/5 26/7/5
f 29/1/1 30/2/1 32/3/1 31/4/1
f 31/4/2 32/3/2 36/5/2 35/6/2
f 35/6/6 36/5/6 34/7/6 33/9/6
f 33/9/3 34/7/3 30/13/3 29/14/3
f 31/8/4 35/6/4 33/9/4 29/10/4
f 36/5/5 32/11/5 30/12/5 34/7/5
